<svg xmlns="http://www.w3.org/2000/svg" width="32" height="32" viewBox="0 0 32 32" fill="none">
  <!-- Dark circle background — matches TopNav: bg-foreground rounded-full size-9 -->
  <rect width="32" height="32" rx="16" fill="#0a0a0a"/>
  <!--
    TopNav proportions: 16px icon inside 36px circle (44.4%).
    32px icon → plane = 14.22px → scale 24→14.22 = 0.5926
    Center offset = 12 * 0.5926 = 7.11
    Lucide defaults: stroke-width=2, stroke-linecap=round, stroke-linejoin=round, fill=none
  -->
  <g transform="translate(16 16) rotate(-45) translate(-7.11 -7.11) scale(0.5926)">
    <path
      d="M17.8 19.2 16 11l3.5-3.5C21 6 21.5 4 21 3c-1-.5-3 0-4.5 1.5L13 8 4.8 6.2c-.5-.1-.9.1-1.1.5l-.3.5c-.2.5-.1 1 .3 1.3L9 12l-2 3H4l-1 1 3 2 2 3 1-1v-3l3-2 3.5 5.3c.3.4.8.5 1.3.3l.5-.2c.4-.3.6-.7.5-1.2z"
      fill="none"
      stroke="white"
      stroke-width="2"
      stroke-linecap="round"
      stroke-linejoin="round"
    />
  </g>
</svg>
